<?xml version="1.0" encoding="iso-8859-1"?>
<!-- Generator: Adobe Illustrator 19.0.0, SVG Export Plug-In . SVG Version: 6.00 Build 0)  -->
<svg version="1.1" id="Layer_1" xmlns="http://www.w3.org/2000/svg" xmlns:xlink="http://www.w3.org/1999/xlink" x="0px" y="0px"
	 viewBox="0 0 273.027 273.027" style="enable-background:new 0 0 273.027 273.027;" xml:space="preserve">
<g>
	<rect y="6.511" style="fill:#858585;" width="273.027" height="260.005"/>
	<g>
		<path style="fill:#8CC63F;" d="M250.853,135.669c0.183,26.676,1.788,54.589-2.063,81.081c0.046,0.458-0.046,0.963-0.229,1.421
			c-0.183,0.55-0.504,0.963-1.008,1.238c-3.025,2.613-8.021,1.971-11.871,2.246c-3.758,0.275-8.617,1.192-11.596-1.696
			c-0.458-0.458-0.688-1.421-0.229-1.971c0-0.046,0-0.046,0-0.046c-0.688-0.275-1.283-0.871-1.467-1.879
			c-0.55-2.704-0.183-5.5,0.092-8.296c-13.338,14.255-41.755,13.934-56.743,3.117c-28.692-20.671-25.163-74.527-20.305-104.503
			c4.859-29.93,26.905-54.131,58.668-55.322c33.78-1.283,43.451,25.988,42.03,54.91c-0.137,2.063-1.238,3.392-2.658,4.171
			c-0.092,0.092-0.229,0.137-0.367,0.229c-0.183,0.046-0.275,0.137-0.458,0.183c-0.229,0.092-0.413,0.229-0.688,0.321
			c-8.8,2.246-20.305,1.925-28.83-1.192c-0.825-0.321-1.375-1.008-1.65-1.788c-0.229-0.367-0.413-0.825-0.458-1.375
			c-0.642-6.692-0.688-13.705-6.279-18.471c-2.613-2.246-6.004-3.483-9.442-3.438c-1.879,0.046-3.483,0.688-5.133,1.329
			c-12.605,24.659-20.351,94.924,8.204,106.841c5.729-0.55,10.863-4.125,13.613-9.763c3.713-7.654,2.292-15.538,2.108-23.559
			c-1.238,0.046-2.521,0.046-3.804,0.046c-4.217,0.046-8.434-0.183-12.559-1.238c-0.963-0.229-1.421-1.1-1.329-1.925
			c-3.025-3.346-2.704-19.434-2.567-21.221c0.046-0.642,0.275-1.146,0.55-1.604c-0.137-1.192,0.779-2.567,2.2-2.704
			c15.767-2.063,33.093-2.521,48.997-1.375c2.017,0.183,3.117,1.467,3.392,2.888C250.028,132.965,250.853,134.019,250.853,135.669z"
			/>
		<path style="fill:#FFFFFF;" d="M130.216,180.862c-0.458,9.992-4.4,24.659,4.95,31.763c0.733,0.596,1.1,1.237,1.192,1.925
			c0.825,2.154-0.183,4.904-3.208,4.813c-10.909-0.367-21.863-0.229-32.772-0.733c-1.146-0.046-1.971-0.825-2.338-1.788
			c-1.238-0.688-2.2-1.833-2.292-3.667c-0.871-12.925,0.367-27.73-3.163-40.334c-4.354-15.721-17.555-18.792-31.534-20.488
			c-0.275,21.084-1.467,42.076-3.804,61.877c-0.275,2.429-2.154,3.621-3.942,3.529c-0.642,0.504-1.375,0.871-2.383,0.917
			c-8.8,0.229-18.609,1.054-27.272-0.871c-1.604-0.321-2.2-1.971-1.879-3.346c0-0.092-0.046-0.137-0.046-0.229
			c1.283-50.739-0.55-102.532,4.354-152.996c0.092-1.054,0.55-1.788,1.192-2.292c-0.412-2.612,1.008-5.592,4.4-5.775
			c29.38-1.421,78.377-4.629,94.969,26.447c10.084,18.792,6.096,49.272-12.604,59.998c5.821,3.3,10.359,8.846,13.063,15.217
			C130.537,163.033,130.675,172.108,130.216,180.862z M86.169,109.269c0.825-14.667-15.08-16.959-26.767-17.692
			c0.733,11.229,1.283,22.78,1.512,34.422c4.584-0.275,9.167-0.046,13.567-1.879C80.486,121.552,85.803,116.052,86.169,109.269z"/>
	</g>
</g>
<g>
</g>
<g>
</g>
<g>
</g>
<g>
</g>
<g>
</g>
<g>
</g>
<g>
</g>
<g>
</g>
<g>
</g>
<g>
</g>
<g>
</g>
<g>
</g>
<g>
</g>
<g>
</g>
<g>
</g>
</svg>
