<?xml version="1.0" encoding="UTF-8" standalone="no"?>
<!-- Generator: Adobe Illustrator 19.0.0, SVG Export Plug-In . SVG Version: 6.00 Build 0)  -->

<svg
   xmlns:dc="http://purl.org/dc/elements/1.1/"
   xmlns:cc="http://creativecommons.org/ns#"
   xmlns:rdf="http://www.w3.org/1999/02/22-rdf-syntax-ns#"
   xmlns:svg="http://www.w3.org/2000/svg"
   xmlns="http://www.w3.org/2000/svg"
   xmlns:sodipodi="http://sodipodi.sourceforge.net/DTD/sodipodi-0.dtd"
   xmlns:inkscape="http://www.inkscape.org/namespaces/inkscape"
   version="1.1"
   id="Layer_1"
   x="0px"
   y="0px"
   viewBox="0 0 273.027 273.027"
   style="enable-background:new 0 0 273.027 273.027;"
   xml:space="preserve"
   sodipodi:docname="researchgate-svgrepo-com_bg.svg"
   inkscape:version="0.92.3 (2405546, 2018-03-11)"><metadata
   id="metadata47"><rdf:RDF><cc:Work
       rdf:about=""><dc:format>image/svg+xml</dc:format><dc:type
         rdf:resource="http://purl.org/dc/dcmitype/StillImage" /><dc:title></dc:title></cc:Work></rdf:RDF></metadata><defs
   id="defs45">
	
	
</defs><sodipodi:namedview
   pagecolor="#ffffff"
   bordercolor="#666666"
   borderopacity="1"
   objecttolerance="10"
   gridtolerance="10"
   guidetolerance="10"
   inkscape:pageopacity="0"
   inkscape:pageshadow="2"
   inkscape:window-width="1853"
   inkscape:window-height="1025"
   id="namedview43"
   showgrid="false"
   inkscape:zoom="0.86438335"
   inkscape:cx="136.5135"
   inkscape:cy="136.5135"
   inkscape:window-x="67"
   inkscape:window-y="27"
   inkscape:window-maximized="1"
   inkscape:current-layer="Layer_1" />
<g
   id="g8">
		<path
   inkscape:connector-curvature="0"
   id="path4"
   d="m 250.853,135.669 c 0.183,26.676 1.788,54.589 -2.063,81.081 0.046,0.458 -0.046,0.963 -0.229,1.421 -0.183,0.55 -0.504,0.963 -1.008,1.238 -3.025,2.613 -8.021,1.971 -11.871,2.246 -3.758,0.275 -8.617,1.192 -11.596,-1.696 -0.458,-0.458 -0.688,-1.421 -0.229,-1.971 0,-0.046 0,-0.046 0,-0.046 -0.688,-0.275 -1.283,-0.871 -1.467,-1.879 -0.55,-2.704 -0.183,-5.5 0.092,-8.296 -13.338,14.255 -41.755,13.934 -56.743,3.117 -28.692,-20.671 -25.163,-74.527 -20.305,-104.503 4.859,-29.93 26.905,-54.131 58.668,-55.322 33.78,-1.283 43.451,25.988 42.03,54.91 -0.137,2.063 -1.238,3.392 -2.658,4.171 -0.092,0.092 -0.229,0.137 -0.367,0.229 -0.183,0.046 -0.275,0.137 -0.458,0.183 -0.229,0.092 -0.413,0.229 -0.688,0.321 -8.8,2.246 -20.305,1.925 -28.83,-1.192 -0.825,-0.321 -1.375,-1.008 -1.65,-1.788 -0.229,-0.367 -0.413,-0.825 -0.458,-1.375 -0.642,-6.692 -0.688,-13.705 -6.279,-18.471 -2.613,-2.246 -6.004,-3.483 -9.442,-3.438 -1.879,0.046 -3.483,0.688 -5.133,1.329 -12.605,24.659 -20.351,94.924 8.204,106.841 5.729,-0.55 10.863,-4.125 13.613,-9.763 3.713,-7.654 2.292,-15.538 2.108,-23.559 -1.238,0.046 -2.521,0.046 -3.804,0.046 -4.217,0.046 -8.434,-0.183 -12.559,-1.238 -0.963,-0.229 -1.421,-1.1 -1.329,-1.925 -3.025,-3.346 -2.704,-19.434 -2.567,-21.221 0.046,-0.642 0.275,-1.146 0.55,-1.604 -0.137,-1.192 0.779,-2.567 2.2,-2.704 15.767,-2.063 33.093,-2.521 48.997,-1.375 2.017,0.183 3.117,1.467 3.392,2.888 1.054,0.641 1.879,1.695 1.879,3.345 z"
   style="fill:#8cc63f" />
		<path
   inkscape:connector-curvature="0"
   id="path6"
   d="m 130.216,180.862 c -0.458,9.992 -4.4,24.659 4.95,31.763 0.733,0.596 1.1,1.237 1.192,1.925 0.825,2.154 -0.183,4.904 -3.208,4.813 -10.909,-0.367 -21.863,-0.229 -32.772,-0.733 -1.146,-0.046 -1.971,-0.825 -2.338,-1.788 -1.238,-0.688 -2.2,-1.833 -2.292,-3.667 -0.871,-12.925 0.367,-27.73 -3.163,-40.334 -4.354,-15.721 -17.555,-18.792 -31.534,-20.488 -0.275,21.084 -1.467,42.076 -3.804,61.877 -0.275,2.429 -2.154,3.621 -3.942,3.529 -0.642,0.504 -1.375,0.871 -2.383,0.917 -8.8,0.229 -18.609,1.054 -27.272,-0.871 -1.604,-0.321 -2.2,-1.971 -1.879,-3.346 0,-0.092 -0.046,-0.137 -0.046,-0.229 1.283,-50.739 -0.55,-102.532 4.354,-152.996 0.092,-1.054 0.55,-1.788 1.192,-2.292 -0.412,-2.612 1.008,-5.592 4.4,-5.775 29.38,-1.421 78.377,-4.629 94.969,26.447 10.084,18.792 6.096,49.272 -12.604,59.998 5.821,3.3 10.359,8.846 13.063,15.217 3.438,8.204 3.576,17.279 3.117,26.033 z M 86.169,109.269 C 86.994,94.602 71.089,92.31 59.402,91.577 c 0.733,11.229 1.283,22.78 1.512,34.422 4.584,-0.275 9.167,-0.046 13.567,-1.879 6.005,-2.568 11.322,-8.068 11.688,-14.851 z"
   style="fill:#ffffff" />
	</g>
<g
   id="g12">
</g>
<g
   id="g14">
</g>
<g
   id="g16">
</g>
<g
   id="g18">
</g>
<g
   id="g20">
</g>
<g
   id="g22">
</g>
<g
   id="g24">
</g>
<g
   id="g26">
</g>
<g
   id="g28">
</g>
<g
   id="g30">
</g>
<g
   id="g32">
</g>
<g
   id="g34">
</g>
<g
   id="g36">
</g>
<g
   id="g38">
</g>
<g
   id="g40">
</g>
</svg>